<svg width="1389" height="1659" viewBox="0 0 1389 1659" fill="none" xmlns="http://www.w3.org/2000/svg">
<path d="M636.5 65C521 135 271.5 283 11.5 359L566 318L636.5 65Z" stroke="#B2D53C" stroke-width="60"/>
<path d="M687 1623.5C1169.5 1367.5 1410.5 910 1348.5 366L99 660.5C119.5 1053 341 1372 687 1623.5Z" fill="#3E4448" stroke="#B2D53C" stroke-width="60"/>
<path d="M1343.5 353.5C1042.5 275.5 881 201.5 685.5 39.5L554 1551.5L685.5 1624C1162.5 1346 1378 842.5 1343.5 353.5Z" fill="#4A5D5F"/>
<path d="M685.567 39C490.067 201 328.567 275 27.5669 353C-3.65021 795.472 169.821 1249.82 556.5 1538.23C597.161 1568.56 640.181 1597.05 685.567 1623.5L556.5 1538.23L739 85.5L685.567 39Z" fill="#344D4D"/>
<path d="M685.5 39.5C501.5 201 329 276 32.0001 353.5C15.5 772 142 1289 685.5 1624C1162.5 1346 1378 842.5 1343.5 353.5C1042.5 275.5 881 201.5 685.5 39.5Z" stroke="#040E1B" stroke-width="60"/>
<path d="M369.005 1069.29L415.67 706.793L288.66 719.769L308.45 586.247L722.459 540.046L707.092 673.083L578.388 686.531L535.028 1050.41L369.005 1069.29Z" fill="#131C17"/>
<path d="M369.005 1069.29L415.67 706.793L288.66 719.769L308.45 586.247L722.459 540.046L707.092 673.083L578.388 686.531L535.028 1050.41L369.005 1069.29Z" stroke="#131C17" stroke-width="6.49867"/>
<path d="M356.007 1017.3L402.672 654.804L275.662 667.78L295.453 534.258L709.461 488.057L694.094 621.093L565.39 634.541L522.031 998.419L356.007 1017.3Z" fill="#142C22"/>
<path d="M356.007 1017.3L402.672 654.804L275.662 667.78L295.453 534.258L709.461 488.057L694.094 621.093L565.39 634.541L522.031 998.419L356.007 1017.3Z" stroke="#142C22" stroke-width="6.49867"/>
<path d="M354.038 1015.33L400.703 652.834L273.688 665.81L293.483 532.288L707.492 486.087L692.125 619.124L563.421 632.572L520.062 996.454L354.038 1015.33Z" fill="#1E362C"/>
<path d="M354.038 1015.33L400.703 652.834L273.688 665.81L293.483 532.288L707.492 486.087L692.125 619.124L563.421 632.572L520.062 996.454L354.038 1015.33Z" stroke="#142C22" stroke-width="6.30371"/>
<path d="M352.069 1013.36L398.733 650.865L271.719 663.84L291.514 530.319L705.522 484.118L690.155 617.154L561.451 630.602L518.092 994.48L352.069 1013.36Z" fill="#2B4237"/>
<path d="M352.069 1013.36L398.733 650.865L271.719 663.84L291.514 530.319L705.522 484.118L690.155 617.154L561.451 630.602L518.092 994.48L352.069 1013.36Z" stroke="#142C22" stroke-width="6.10442"/>
<path d="M350.099 1011.39L396.764 648.895L269.754 661.871L289.544 528.349L703.553 482.148L688.186 615.184L559.482 628.632L516.122 992.51L350.099 1011.39Z" fill="#3A5045"/>
<path d="M350.099 1011.39L396.764 648.895L269.754 661.871L289.544 528.349L703.553 482.148L688.186 615.184L559.482 628.632L516.122 992.51L350.099 1011.39Z" stroke="#142C22" stroke-width="5.90945"/>
<path d="M348.131 1009.42L394.795 646.928L267.785 659.904L287.576 526.382L701.584 480.181L686.217 613.217L557.513 626.665L514.154 990.543L348.131 1009.42Z" fill="#4A5F55"/>
<path d="M348.131 1009.42L394.795 646.928L267.785 659.904L287.576 526.382L701.584 480.181L686.217 613.217L557.513 626.665L514.154 990.543L348.131 1009.42Z" stroke="#142C22" stroke-width="5.71016"/>
<path d="M346.161 1007.45L392.826 644.958L265.812 657.934L285.606 524.412L699.615 478.211L684.248 611.248L555.544 624.696L512.185 988.578L346.161 1007.45Z" fill="#5D7066"/>
<path d="M346.161 1007.45L392.826 644.958L265.812 657.934L285.606 524.412L699.615 478.211L684.248 611.248L555.544 624.696L512.185 988.578L346.161 1007.45Z" stroke="#142C22" stroke-width="5.5152"/>
<path d="M344.192 1005.48L390.856 642.989L263.846 655.964L283.637 522.443L697.646 476.242L682.278 609.278L553.574 622.726L510.215 986.604L344.192 1005.48Z" fill="#728379"/>
<path d="M344.192 1005.48L390.856 642.989L263.846 655.964L283.637 522.443L697.645 476.242L682.278 609.278L553.574 622.726L510.215 986.604L344.192 1005.48Z" stroke="#142C22" stroke-width="5.31591"/>
<path d="M342.222 1003.52L388.887 641.02L261.877 653.996L281.668 520.474L695.676 474.273L680.309 607.309L551.605 620.757L508.246 984.635L342.222 1003.52Z" fill="#88978E"/>
<path d="M342.222 1003.52L388.887 641.02L261.877 653.996L281.668 520.474L695.676 474.273L680.309 607.309L551.605 620.757L508.246 984.635L342.222 1003.52Z" stroke="#142C22" stroke-width="5.12095"/>
<path d="M340.254 1001.55L386.918 639.05L259.908 652.026L279.699 518.504L693.708 472.303L678.34 605.339L549.636 618.787L506.277 982.665L340.254 1001.55Z" fill="#A1ADA5"/>
<path d="M340.254 1001.55L386.918 639.05L259.908 652.026L279.699 518.504L693.708 472.303L678.34 605.339L549.636 618.787L506.277 982.665L340.254 1001.55Z" stroke="#142C22" stroke-width="4.92166"/>
<path d="M338.284 999.576L384.949 637.081L257.935 650.056L277.73 516.535L691.738 470.333L676.371 603.37L547.667 616.818L504.308 980.695L338.284 999.576Z" fill="#BBC4BE"/>
<path d="M338.284 999.576L384.949 637.08L257.935 650.056L277.73 516.535L691.738 470.333L676.371 603.37L547.667 616.818L504.308 980.695L338.284 999.576Z" stroke="#142C22" stroke-width="4.7267"/>
<path d="M336.315 997.606L382.979 635.111L255.969 648.086L275.76 514.565L689.769 468.364L674.401 601.4L545.697 614.848L502.338 978.726L336.315 997.606Z" fill="#D8DDD9"/>
<path d="M336.315 997.606L382.979 635.111L255.969 648.086L275.76 514.565L689.769 468.364L674.401 601.4L545.697 614.848L502.338 978.726L336.315 997.606Z" stroke="#142C22" stroke-width="4.5274"/>
<path d="M334.345 995.638L381.01 633.142L254 646.118L273.791 512.596L687.799 466.395L672.432 599.431L543.728 612.879L500.369 976.757L334.345 995.638Z" fill="#F6F8F5"/>
<path d="M334.345 995.638L381.01 633.142L254 646.118L273.791 512.596L687.799 466.395L672.432 599.431L543.728 612.879L500.369 976.757L334.345 995.638Z" stroke="#142C22" stroke-width="4.33245"/>
<path d="M625.076 1246.49L717.619 520.385L1123 470.588L1096.33 623.607L886.719 647.231L871.864 768.974L1047.04 749.416L1028 899.099L855.722 918.32L819.158 1213.34L625.076 1246.49Z" fill="#131C17"/>
<path d="M625.076 1246.49L717.619 520.385L1123 470.588L1096.33 623.607L886.719 647.231L871.864 768.974L1047.04 749.416L1028 899.099L855.722 918.32L819.158 1213.34L625.076 1246.49Z" stroke="#131C17" stroke-width="4.81657"/>
<path d="M615.443 1207.96L707.985 481.852L1113.37 432.056L1086.7 585.075L877.085 608.698L862.231 730.442L1037.4 710.884L1018.36 860.567L846.089 879.788L809.525 1174.81L615.443 1207.96Z" fill="#142C22"/>
<path d="M615.443 1207.96L707.985 481.852L1113.37 432.056L1086.7 585.075L877.085 608.698L862.231 730.442L1037.4 710.884L1018.36 860.567L846.089 879.788L809.525 1174.81L615.443 1207.96Z" stroke="#142C22" stroke-width="4.81657"/>
<path d="M613.983 1206.5L706.526 480.393L1111.91 430.596L1085.24 583.615L875.626 607.239L860.775 728.982L1035.94 709.424L1016.9 859.107L844.629 878.328L808.065 1173.35L613.983 1206.5Z" fill="#1E362C"/>
<path d="M613.983 1206.5L706.526 480.393L1111.91 430.596L1085.24 583.615L875.626 607.238L860.775 728.982L1035.94 709.424L1016.9 859.107L844.629 878.328L808.065 1173.35L613.983 1206.5Z" stroke="#142C22" stroke-width="4.67207"/>
<path d="M612.523 1205.04L705.066 478.933L1110.45 429.136L1083.78 582.155L874.166 605.779L859.312 727.522L1034.48 707.964L1015.44 857.647L843.17 876.868L806.605 1171.89L612.523 1205.04Z" fill="#2B4237"/>
<path d="M612.523 1205.04L705.066 478.933L1110.45 429.136L1083.78 582.155L874.166 605.779L859.312 727.522L1034.48 707.964L1015.44 857.647L843.17 876.868L806.605 1171.89L612.523 1205.04Z" stroke="#142C22" stroke-width="4.52436"/>
<path d="M611.064 1203.58L703.606 477.473L1108.99 427.676L1082.32 580.695L872.706 604.319L857.855 726.062L1033.02 706.504L1013.98 856.187L841.71 875.408L805.146 1170.43L611.064 1203.58Z" fill="#3A5045"/>
<path d="M611.064 1203.58L703.606 477.473L1108.99 427.676L1082.32 580.695L872.706 604.319L857.855 726.062L1033.02 706.504L1013.98 856.187L841.71 875.408L805.146 1170.43L611.064 1203.58Z" stroke="#142C22" stroke-width="4.37987"/>
<path d="M609.604 1202.12L702.146 476.014L1107.53 426.217L1080.86 579.236L871.246 602.86L856.392 724.603L1031.56 705.045L1012.52 854.728L840.25 873.949L803.686 1168.97L609.604 1202.12Z" fill="#4A5F55"/>
<path d="M609.604 1202.12L702.146 476.014L1107.53 426.217L1080.86 579.236L871.246 602.86L856.392 724.603L1031.56 705.045L1012.52 854.728L840.25 873.949L803.686 1168.97L609.604 1202.12Z" stroke="#142C22" stroke-width="4.23216"/>
<path d="M608.144 1200.66L700.687 474.554L1106.07 424.757L1079.4 577.776L869.787 601.4L854.936 723.143L1030.1 703.585L1011.06 853.268L838.791 872.489L802.226 1167.51L608.144 1200.66Z" fill="#5D7066"/>
<path d="M608.144 1200.66L700.687 474.554L1106.07 424.757L1079.4 577.776L869.787 601.4L854.936 723.143L1030.1 703.585L1011.06 853.268L838.791 872.489L802.226 1167.51L608.144 1200.66Z" stroke="#142C22" stroke-width="4.08766"/>
<path d="M606.686 1199.2L699.228 473.094L1104.61 423.297L1077.94 576.316L868.328 599.94L853.474 721.683L1028.65 702.125L1009.6 851.808L837.332 871.029L800.768 1166.05L606.686 1199.2Z" fill="#728379"/>
<path d="M606.686 1199.2L699.228 473.094L1104.61 423.297L1077.94 576.316L868.328 599.94L853.474 721.683L1028.65 702.125L1009.6 851.808L837.332 871.029L800.768 1166.05L606.686 1199.2Z" stroke="#142C22" stroke-width="3.93995"/>
<path d="M605.226 1197.74L697.768 471.634L1103.15 421.837L1076.48 574.856L866.868 598.48L852.017 720.223L1027.19 700.665L1008.14 850.348L835.872 869.569L799.308 1164.59L605.226 1197.74Z" fill="#88978E"/>
<path d="M605.226 1197.74L697.768 471.634L1103.15 421.837L1076.48 574.856L866.868 598.48L852.017 720.223L1027.19 700.665L1008.14 850.348L835.872 869.569L799.308 1164.59L605.226 1197.74Z" stroke="#142C22" stroke-width="3.79546"/>
<path d="M603.766 1196.28L696.308 470.176L1101.69 420.379L1075.02 573.398L865.409 597.022L850.554 718.765L1025.73 699.207L1006.68 848.89L834.412 868.111L797.848 1163.13L603.766 1196.28Z" fill="#A1ADA5"/>
<path d="M603.766 1196.28L696.308 470.176L1101.69 420.379L1075.02 573.398L865.409 597.022L850.554 718.765L1025.73 699.207L1006.68 848.89L834.412 868.111L797.848 1163.13L603.766 1196.28Z" stroke="#142C22" stroke-width="3.64775"/>
<path d="M602.306 1194.82L694.849 468.717L1100.23 418.92L1073.56 571.939L863.949 595.563L849.098 717.306L1024.27 697.748L1005.23 847.431L832.953 866.652L796.388 1161.67L602.306 1194.82Z" fill="#BBC4BE"/>
<path d="M602.306 1194.82L694.849 468.717L1100.23 418.92L1073.56 571.939L863.949 595.563L849.098 717.306L1024.27 697.748L1005.23 847.431L832.953 866.652L796.388 1161.67L602.306 1194.82Z" stroke="#142C22" stroke-width="3.50325"/>
<path d="M600.847 1193.36L693.389 467.257L1098.77 417.46L1072.1 570.479L862.489 594.103L847.635 715.846L1022.81 696.288L1003.77 845.971L831.493 865.192L794.929 1160.21L600.847 1193.36Z" fill="#D8DDD9"/>
<path d="M600.847 1193.36L693.389 467.257L1098.77 417.46L1072.1 570.479L862.489 594.103L847.635 715.846L1022.81 696.288L1003.77 845.971L831.493 865.192L794.929 1160.21L600.847 1193.36Z" stroke="#142C22" stroke-width="3.35554"/>
<path d="M599.388 1191.9L691.93 465.797L1097.31 416L1070.64 569.019L861.03 592.643L846.176 714.386L1021.35 694.828L1002.31 844.511L830.034 863.732L793.47 1158.75L599.388 1191.9Z" fill="#B2D53C"/>
<path d="M599.388 1191.9L691.93 465.797L1097.31 416L1070.64 569.019L861.03 592.643L846.176 714.386L1021.35 694.828L1002.31 844.511L830.034 863.732L793.47 1158.75L599.388 1191.9Z" stroke="#142C22" stroke-width="3.21105"/>
</svg>
